# xmcd
#
# Track frame offsets: 
#        150
#        13167
#        25360
#        38330
#        53622
#        67810
#        81710
#        94710
#        108090
#        121995
#        137237
#        151955
#
# Disc length: 2187 seconds
#
# Revision: 8
# Processed by: cddbd v1.5.2PL0 Copyright (c) Steve Scherf et al.
# Submitted via: ExactAudioCopy v1.1
#
DISCID=9108890c
DTITLE=Muddy Waters - The Best of Muddy Waters
DYEAR=1987
DGENRE=Blues
TTITLE0=I Just Want to Make Love to You
TTITLE1=Long Distance Call
TTITLE2=Louisiana Blues
TTITLE3=Honey Bee
TTITLE4=Rollin' Stone
TTITLE5=I'm Ready
TTITLE6=(I'm Your) Hoochie Coochie Man
TTITLE7=She Moves Me
TTITLE8=I Want You to Love Me
TTITLE9=Standing Around Crying
TTITLE10=Still a Fool
TTITLE11=I Can't Be Satisfied
EXTD=YEAR: 2006
EXTT0=
EXTT1=
EXTT2=
EXTT3=
EXTT4=
EXTT5=
EXTT6=
EXTT7=
EXTT8=
EXTT9=
EXTT10=
EXTT11=
PLAYORDER=
